Tilt-Prism-Model-SC2.ufo
<glyph name="hyphen" format="2">
  <advance width="340"/>
  <unicode hex="002D"/>
  <outline>
    <contour>
      <point x="35" y="226" type="line"/>
      <point x="305" y="286" type="line"/>
      <point x="305" y="411" type="line"/>
      <point x="35" y="351" type="line"/>
    </contour>
  </outline>
</glyph>
<glyph name="slash" format="2">
  <advance width="490"/>
  <unicode hex="002F"/>
  <outline>
    <contour>
      <point x="25" y="-75" type="line"/>
      <point x="166" y="-75" type="line"/>
      <point x="466" y="750" type="line"/>
      <point x="325" y="750" type="line"/>
    </contour>
  </outline>
</glyph>
<glyph name="five" format="2">
  <advance width="527"/>
  <unicode hex="0035"/>
  <outline>
    <contour>
      <point x="193" y="552" type="curve" smooth="yes"/>
      <point x="127" y="552" type="line"/>
      <point x="97" y="680" type="line"/>
      <point x="449" y="680" type="line"/>
      <point x="449" y="524" type="line"/>
      <point x="414" y="542"/>
      <point x="357" y="552"/>
    </contour>
    <contour>
      <point x="135" y="421" type="line"/>
      <point x="361" y="452"/>
      <point x="487" y="369"/>
      <point x="487" y="214" type="curve" smooth="yes"/>
      <point x="487" y="22"/>
      <point x="271" y="-63"/>
      <point x="50" y="14" type="curve"/>
      <point x="50" y="177" type="line"/>
      <point x="106" y="136"/>
      <point x="163" y="111"/>
      <point x="222" y="111" type="curve" smooth="yes"/>
      <point x="296" y="111"/>
      <point x="334" y="149"/>
      <point x="334" y="214" type="curve" smooth="yes"/>
      <point x="334" y="287"/>
      <point x="264" y="335"/>
      <point x="60" y="290" type="curve"/>
      <point x="96" y="680" type="line"/>
      <point x="227" y="680" type="line"/>
      <point x="200" y="390" type="line"/>
    </contour>
  </outline>
</glyph>
<glyph name="equal" format="2">
  <advance width="490"/>
  <unicode hex="003D"/>
  <outline>
    <contour>
      <point x="40" y="365" type="line"/>
      <point x="450" y="365" type="line"/>
      <point x="450" y="492" type="line"/>
      <point x="40" y="492" type="line"/>
    </contour>
    <contour>
      <point x="40" y="125" type="line"/>
      <point x="450" y="125" type="line"/>
      <point x="450" y="252" type="line"/>
      <point x="40" y="252" type="line"/>
    </contour>
  </outline>
</glyph>
<glyph name="F" format="2">
  <advance width="521"/>
  <unicode hex="0046"/>
  <outline>
    <contour>
      <point x="57" y="0" type="curve"/>
      <point x="254" y="0" type="line"/>
      <point x="234" y="40"/>
      <point x="227" y="95"/>
      <point x="227" y="349" type="curve" smooth="yes"/>
      <point x="227" y="589"/>
      <point x="234" y="641"/>
      <point x="254" y="680" type="curve"/>
      <point x="57" y="680" type="line"/>
      <point x="77" y="641"/>
      <point x="84" y="589"/>
      <point x="84" y="349" type="curve" smooth="yes"/>
      <point x="84" y="95"/>
      <point x="77" y="40"/>
    </contour>
    <contour>
      <point x="190" y="554" type="line"/>
      <point x="397" y="560"/>
      <point x="441" y="542"/>
      <point x="476" y="524" type="curve"/>
      <point x="476" y="680" type="line"/>
      <point x="166" y="680" type="line"/>
    </contour>
    <contour>
      <point x="158" y="270" type="line"/>
      <point x="379" y="270"/>
      <point x="415" y="266"/>
      <point x="449" y="249" type="curve"/>
      <point x="449" y="412" type="line"/>
      <point x="415" y="394"/>
      <point x="379" y="390"/>
      <point x="158" y="390" type="curve"/>
    </contour>
  </outline>
</glyph>
<glyph name="I" format="2">
  <advance width="319"/>
  <unicode hex="0049"/>
  <outline>
    <contour>
      <point x="61" y="0" type="curve"/>
      <point x="258" y="0" type="line"/>
      <point x="238" y="40"/>
      <point x="231" y="95"/>
      <point x="231" y="349" type="curve" smooth="yes"/>
      <point x="231" y="589"/>
      <point x="238" y="641"/>
      <point x="258" y="680" type="curve"/>
      <point x="61" y="680" type="line"/>
      <point x="81" y="641"/>
      <point x="88" y="589"/>
      <point x="88" y="349" type="curve" smooth="yes"/>
      <point x="88" y="95"/>
      <point x="81" y="40"/>
    </contour>
  </outline>
</glyph>
<glyph name="K" format="2">
  <advance width="658"/>
  <unicode hex="004B"/>
  <outline>
    <contour>
      <point x="57" y="0" type="curve"/>
      <point x="254" y="0" type="line"/>
      <point x="234" y="40"/>
      <point x="227" y="95"/>
      <point x="227" y="349" type="curve" smooth="yes"/>
      <point x="227" y="589"/>
      <point x="234" y="641"/>
      <point x="254" y="680" type="curve"/>
      <point x="57" y="680" type="line"/>
      <point x="77" y="641"/>
      <point x="84" y="589"/>
      <point x="84" y="349" type="curve" smooth="yes"/>
      <point x="84" y="95"/>
      <point x="77" y="40"/>
    </contour>
    <contour>
      <point x="435" y="0" type="curve"/>
      <point x="668" y="0" type="line"/>
      <point x="617" y="40"/>
      <point x="557" y="97"/>
      <point x="352" y="373" type="curve"/>
      <point x="196" y="349" type="line"/>
      <point x="391" y="95"/>
      <point x="427" y="40"/>
    </contour>
    <contour>
      <point x="447" y="680" type="line"/>
      <point x="438" y="640"/>
      <point x="402" y="595"/>
      <point x="180" y="341" type="curve"/>
      <point x="337" y="336" type="line"/>
      <point x="558" y="590"/>
      <point x="605" y="640"/>
      <point x="660" y="680" type="curve"/>
    </contour>
  </outline>
</glyph>
<glyph name="bracketleft" format="2">
  <advance width="457"/>
  <unicode hex="005B"/>
  <outline>
    <contour>
      <point x="282" y="-84" type="line"/>
      <point x="256" y="-33"/>
      <point x="255" y="9"/>
      <point x="255" y="340" type="curve" smooth="yes"/>
      <point x="255" y="671"/>
      <point x="256" y="713"/>
      <point x="282" y="764" type="curve"/>
      <point x="168" y="654" type="line"/>
      <point x="305" y="652"/>
      <point x="414" y="714"/>
      <point x="442" y="815" type="curve"/>
      <point x="322" y="793"/>
      <point x="195" y="787"/>
      <point x="85" y="795" type="curve"/>
      <point x="111" y="744"/>
      <point x="112" y="671"/>
      <point x="112" y="340" type="curve" smooth="yes"/>
      <point x="112" y="9"/>
      <point x="111" y="-64"/>
      <point x="85" y="-115" type="curve"/>
      <point x="195" y="-107"/>
      <point x="322" y="-113"/>
      <point x="442" y="-135" type="curve"/>
      <point x="414" y="-34"/>
      <point x="305" y="28"/>
      <point x="168" y="26" type="curve"/>
    </contour>
  </outline>
</glyph>
<glyph name="bracketright" format="2">
  <advance width="457"/>
  <unicode hex="005D"/>
  <outline>
    <contour>
      <point x="175" y="765" type="line"/>
      <point x="201" y="714"/>
      <point x="202" y="672"/>
      <point x="202" y="341" type="curve" smooth="yes"/>
      <point x="202" y="10"/>
      <point x="201" y="-32"/>
      <point x="175" y="-83" type="curve"/>
      <point x="289" y="7" type="line"/>
      <point x="152" y="9"/>
      <point x="43" y="-53"/>
      <point x="15" y="-134" type="curve"/>
      <point x="135" y="-112"/>
      <point x="262" y="-106"/>
      <point x="372" y="-114" type="curve"/>
      <point x="346" y="-63"/>
      <point x="345" y="10"/>
      <point x="345" y="341" type="curve" smooth="yes"/>
      <point x="345" y="672"/>
      <point x="346" y="745"/>
      <point x="372" y="796" type="curve"/>
      <point x="262" y="788"/>
      <point x="135" y="794"/>
      <point x="15" y="816" type="curve"/>
      <point x="43" y="735"/>
      <point x="152" y="673"/>
      <point x="289" y="675" type="curve"/>
    </contour>
  </outline>
</glyph>
<glyph name="b" format="2">
  <advance width="534"/>
  <unicode hex="0062"/>
  <outline>
    <contour>
      <point x="50" y="0" type="curve"/>
      <point x="241" y="0" type="line"/>
      <point x="223" y="35"/>
      <point x="214" y="81"/>
      <point x="214" y="299" type="curve" smooth="yes"/>
      <point x="214" y="503"/>
      <point x="223" y="545"/>
      <point x="241" y="580" type="curve"/>
      <point x="50" y="580" type="line"/>
      <point x="68" y="545"/>
      <point x="77" y="503"/>
      <point x="77" y="299" type="curve" smooth="yes"/>
      <point x="77" y="81"/>
      <point x="68" y="35"/>
    </contour>
    <contour>
      <point x="186" y="267" type="line"/>
      <point x="289" y="267" type="line" smooth="yes"/>
      <point x="406.0" y="267.0"/>
      <point x="484" y="325"/>
      <point x="484" y="419" type="curve" smooth="yes"/>
      <point x="484" y="515"/>
      <point x="403.0" y="580.0"/>
      <point x="272" y="580" type="curve" smooth="yes"/>
      <point x="186" y="580" type="line"/>
      <point x="186" y="464" type="line"/>
      <point x="282" y="464" type="line" smooth="yes"/>
      <point x="318.0" y="464.0"/>
      <point x="340.0" y="441.0"/>
      <point x="340" y="407" type="curve" smooth="yes"/>
      <point x="340.0" y="375.0"/>
      <point x="315.0" y="352.0"/>
      <point x="282" y="352" type="curve" smooth="yes"/>
      <point x="186" y="352" type="line"/>
    </contour>
    <contour>
      <point x="206" y="0" type="line"/>
      <point x="296" y="0" type="line" smooth="yes"/>
      <point x="419.0" y="0.0"/>
      <point x="504" y="70"/>
      <point x="504" y="172" type="curve" smooth="yes"/>
      <point x="504" y="272"/>
      <point x="423.0" y="333.0"/>
      <point x="285" y="333" type="curve" smooth="yes"/>
      <point x="206" y="333" type="line"/>
      <point x="206" y="243" type="line"/>
      <point x="292" y="243" type="line" smooth="yes"/>
      <point x="334.0" y="243.0"/>
      <point x="360.0" y="218.0"/>
      <point x="360" y="180" type="curve" smooth="yes"/>
      <point x="360.0" y="141.0"/>
      <point x="331.0" y="116.0"/>
      <point x="292" y="116" type="curve" smooth="yes"/>
      <point x="206" y="116" type="line"/>
    </contour>
  </outline>
</glyph>
<glyph name="d" format="2">
  <advance width="617"/>
  <unicode hex="0064"/>
  <outline>
    <contour>
      <point x="50" y="0" type="curve"/>
      <point x="241" y="0" type="line"/>
      <point x="223" y="35"/>
      <point x="214" y="81"/>
      <point x="214" y="299" type="curve" smooth="yes"/>
      <point x="214" y="502"/>
      <point x="223" y="545"/>
      <point x="241" y="580" type="curve"/>
      <point x="50" y="580" type="line"/>
      <point x="68" y="545"/>
      <point x="77" y="502"/>
      <point x="77" y="299" type="curve" smooth="yes"/>
      <point x="77" y="81"/>
      <point x="68" y="35"/>
    </contour>
    <contour>
      <point x="278" y="461" type="line" smooth="yes"/>
      <point x="379.0" y="461.0"/>
      <point x="442.0" y="394"/>
      <point x="442" y="291" type="curve" smooth="yes"/>
      <point x="442.0" y="186"/>
      <point x="379.0" y="119.0"/>
      <point x="278" y="119" type="curve" smooth="yes"/>
      <point x="148" y="119" type="line"/>
      <point x="148" y="0" type="line"/>
      <point x="288" y="0" type="line" smooth="yes"/>
      <point x="461.0" y="0.0"/>
      <point x="588.0" y="114"/>
      <point x="588" y="291" type="curve" smooth="yes"/>
      <point x="588.0" y="466.0"/>
      <point x="461.0" y="580.0"/>
      <point x="288" y="580" type="curve" smooth="yes"/>
      <point x="148" y="580" type="line"/>
      <point x="148" y="461" type="line"/>
    </contour>
  </outline>
</glyph>
<glyph name="e" format="2">
  <advance width="484"/>
  <unicode hex="0065"/>
  <outline>
    <contour>
      <point x="184" y="120" type="curve"/>
      <point x="160" y="0" type="line"/>
      <point x="418" y="0" type="line"/>
      <point x="438" y="160" type="line"/>
      <point x="403" y="132"/>
      <point x="361" y="115"/>
    </contour>
    <contour>
      <point x="184" y="460" type="line"/>
      <point x="355" y="465"/>
      <point x="390" y="446"/>
      <point x="420" y="430" type="curve"/>
      <point x="420" y="580" type="line"/>
      <point x="160" y="580" type="line"/>
    </contour>
    <contour>
      <point x="152" y="243" type="line"/>
      <point x="335" y="243"/>
      <point x="364" y="237"/>
      <point x="393" y="222" type="curve"/>
      <point x="393" y="379" type="line"/>
      <point x="363" y="363"/>
      <point x="335" y="357"/>
      <point x="152" y="357" type="curve"/>
    </contour>
    <contour>
      <point x="50" y="0" type="curve"/>
      <point x="241" y="0" type="line"/>
      <point x="223" y="35"/>
      <point x="214" y="81"/>
      <point x="214" y="299" type="curve" smooth="yes"/>
      <point x="214" y="502"/>
      <point x="223" y="545"/>
      <point x="241" y="580" type="curve"/>
      <point x="50" y="580" type="line"/>
      <point x="68" y="545"/>
      <point x="77" y="502"/>
      <point x="77" y="299" type="curve" smooth="yes"/>
      <point x="77" y="81"/>
      <point x="68" y="35"/>
    </contour>
  </outline>
</glyph>
<glyph name="f" format="2">
  <advance width="463"/>
  <unicode hex="0066"/>
  <outline>
    <contour>
      <point x="190" y="460" type="line"/>
      <point x="361" y="465"/>
      <point x="393" y="446"/>
      <point x="423" y="430" type="curve"/>
      <point x="423" y="580" type="line"/>
      <point x="166" y="580" type="line"/>
    </contour>
    <contour>
      <point x="158" y="224" type="line"/>
      <point x="341" y="224"/>
      <point x="367" y="218"/>
      <point x="396" y="203" type="curve"/>
      <point x="396" y="360" type="line"/>
      <point x="366" y="344"/>
      <point x="341" y="338"/>
      <point x="158" y="338" type="curve"/>
    </contour>
    <contour>
      <point x="50" y="0" type="curve"/>
      <point x="241" y="0" type="line"/>
      <point x="223" y="35"/>
      <point x="214" y="81"/>
      <point x="214" y="299" type="curve" smooth="yes"/>
      <point x="214" y="502"/>
      <point x="223" y="545"/>
      <point x="241" y="580" type="curve"/>
      <point x="50" y="580" type="line"/>
      <point x="68" y="545"/>
      <point x="77" y="502"/>
      <point x="77" y="299" type="curve" smooth="yes"/>
      <point x="77" y="81"/>
      <point x="68" y="35"/>
    </contour>
  </outline>
</glyph>
<glyph name="o" format="2">
  <advance width="638"/>
  <unicode hex="006F"/>
  <outline>
    <contour>
      <point x="319" y="109" type="curve" smooth="yes"/>
      <point x="405.0" y="109.0"/>
      <point x="463.0" y="178.28409090909093"/>
      <point x="463" y="291" type="curve" smooth="yes"/>
      <point x="463.0" y="402.7241379310345"/>
      <point x="405.0" y="471.0"/>
      <point x="319" y="471" type="curve" smooth="yes"/>
      <point x="233.0" y="471.0"/>
      <point x="175.0" y="403.7586206896551"/>
      <point x="175" y="291" type="curve" smooth="yes"/>
      <point x="175.0" y="178.28409090909093"/>
      <point x="233.0" y="109.0"/>
    </contour>
    <contour>
      <point x="319" y="-12" type="curve" smooth="yes"/>
      <point x="148.76109215017067" y="-12.0"/>
      <point x="29.0" y="114.0"/>
      <point x="29" y="291" type="curve" smooth="yes"/>
      <point x="29.0" y="467.0"/>
      <point x="148.76109215017067" y="592.0"/>
      <point x="319" y="592" type="curve" smooth="yes"/>
      <point x="487.259385665529" y="592.0"/>
      <point x="609.0" y="467.0"/>
      <point x="609" y="291" type="curve" smooth="yes"/>
      <point x="609.0" y="114.0"/>
      <point x="487.259385665529" y="-12.0"/>
    </contour>
  </outline>
</glyph>
<glyph name="braceright" format="2">
  <advance width="461"/>
  <unicode hex="007D"/>
  <outline>
    <contour>
      <point x="180" y="245" type="curve" smooth="yes"/>
      <point x="180" y="312"/>
      <point x="215" y="358"/>
      <point x="341" y="346" type="curve"/>
      <point x="366" y="286" type="line"/>
      <point x="345" y="286"/>
      <point x="324" y="277"/>
      <point x="324" y="252" type="curve" smooth="yes"/>
      <point x="324" y="212"/>
      <point x="381" y="112"/>
      <point x="381" y="28" type="curve" smooth="yes"/>
      <point x="381" y="-114"/>
      <point x="247" y="-165"/>
      <point x="50" y="-122" type="curve"/>
      <point x="50" y="24" type="line"/>
      <point x="168" y="-47"/>
      <point x="229" y="-19"/>
      <point x="229" y="37" type="curve" smooth="yes"/>
      <point x="229" y="94"/>
      <point x="180" y="172"/>
    </contour>
    <contour>
      <point x="431" y="401" type="line"/>
      <point x="431" y="286" type="line"/>
      <point x="275" y="286" type="line"/>
      <point x="275" y="401" type="line"/>
    </contour>
    <contour>
      <point x="180" y="442" type="curve" smooth="yes"/>
      <point x="180" y="515"/>
      <point x="229" y="593"/>
      <point x="229" y="650" type="curve" smooth="yes"/>
      <point x="229" y="706"/>
      <point x="168" y="734"/>
      <point x="50" y="663" type="curve"/>
      <point x="50" y="809" type="line"/>
      <point x="247" y="852"/>
      <point x="381" y="801"/>
      <point x="381" y="659" type="curve" smooth="yes"/>
      <point x="381" y="575"/>
      <point x="324" y="475"/>
      <point x="324" y="435" type="curve" smooth="yes"/>
      <point x="324" y="410"/>
      <point x="345" y="401"/>
      <point x="366" y="401" type="curve"/>
      <point x="341" y="341" type="line"/>
      <point x="215" y="329"/>
      <point x="180" y="375"/>
    </contour>
  </outline>
</glyph>
<glyph name="cedilla" format="2">
  <advance width="416"/>
  <unicode hex="00B8"/>
  <anchor x="0" y="0" name="bottom"/>
  <anchor x="208" y="0" name="center"/>
  <outline>
    <contour>
      <point x="238" y="45" type="curve"/>
      <point x="122" y="36" type="line"/>
      <point x="122.0" y="-101.90751445086707"/>
      <point x="224.0" y="-79"/>
      <point x="224.0" y="-131" type="curve" smooth="yes"/>
      <point x="224" y="-176"/>
      <point x="149" y="-168"/>
      <point x="60" y="-104" type="curve"/>
      <point x="60" y="-230" type="line"/>
      <point x="235.0" y="-281.0"/>
      <point x="356.0" y="-238.0"/>
      <point x="356" y="-124" type="curve" smooth="yes"/>
      <point x="356.0" y="-18.0"/>
      <point x="228.8287645764163" y="-42.12673652404506"/>
    </contour>
  </outline>
</glyph>
<glyph name="multiply" format="2">
  <advance width="535"/>
  <unicode hex="00D7"/>
  <outline>
    <contour>
      <point x="143" y="88" type="line"/>
      <point x="488" y="433" type="line"/>
      <point x="393" y="528" type="line"/>
      <point x="48" y="183" type="line"/>
    </contour>
    <contour>
      <point x="393" y="88" type="line"/>
      <point x="488" y="183" type="line"/>
      <point x="143" y="528" type="line"/>
      <point x="48" y="433" type="line"/>
    </contour>
  </outline>
</glyph>
<glyph name="Oslash" format="2">
  <advance width="740"/>
  <unicode hex="00D8"/>
  <outline>
    <contour>
      <point x="95" y="-33" type="line"/>
      <point x="533" y="772" type="line"/>
      <point x="641" y="714" type="line"/>
      <point x="203" y="-91" type="line"/>
    </contour>
    <component base="O"/>
  </outline>
</glyph>
<glyph name="thorn" format="2">
  <advance width="541"/>
  <unicode hex="00FE"/>
  <outline>
    <contour>
      <point x="50" y="0" type="curve"/>
      <point x="241" y="0" type="line"/>
      <point x="225" y="31"/>
      <point x="214" y="68"/>
      <point x="214" y="249" type="curve" smooth="yes"/>
      <point x="214" y="489"/>
      <point x="221" y="541"/>
      <point x="241" y="580" type="curve"/>
      <point x="50" y="580" type="line"/>
      <point x="70" y="541"/>
      <point x="77" y="489"/>
      <point x="77" y="249" type="curve" smooth="yes"/>
      <point x="77" y="68"/>
      <point x="66" y="31"/>
    </contour>
    <contour>
      <point x="385" y="291" type="curve" smooth="yes"/>
      <point x="385" y="239"/>
      <point x="353" y="206"/>
      <point x="297" y="206" type="curve" smooth="yes"/>
      <point x="180" y="206" type="line"/>
      <point x="180" y="87" type="line"/>
      <point x="295" y="87" type="line" smooth="yes"/>
      <point x="438" y="87"/>
      <point x="526" y="170"/>
      <point x="526" y="293" type="curve" smooth="yes"/>
      <point x="526" y="416"/>
      <point x="438" y="497"/>
      <point x="295" y="497" type="curve" smooth="yes"/>
      <point x="180" y="497" type="line"/>
      <point x="180" y="378" type="line"/>
      <point x="297" y="378" type="line" smooth="yes"/>
      <point x="353" y="378"/>
      <point x="385" y="343"/>
    </contour>
  </outline>
</glyph>
<glyph name="endash" format="2">
  <advance width="555"/>
  <unicode hex="2013"/>
  <outline>
    <contour>
      <point x="65.0" y="256.0" type="line"/>
      <point x="490.0" y="256.0" type="line"/>
      <point x="490.0" y="381.0" type="line"/>
      <point x="65.0" y="381.0" type="line"/>
    </contour>
  </outline>
</glyph>
<glyph name="emdash" format="2">
  <advance width="805"/>
  <unicode hex="2014"/>
  <outline>
    <contour>
      <point x="65.0" y="256.0" type="line"/>
      <point x="740.0" y="256.0" type="line"/>
      <point x="740.0" y="381.0" type="line"/>
      <point x="65.0" y="381.0" type="line"/>
    </contour>
  </outline>
</glyph>
<glyph name="quotedblbase" format="2">
  <advance width="499"/>
  <unicode hex="201E"/>
  <outline>
    <contour>
      <point x="60" y="161" type="curve"/>
      <point x="227" y="161" type="line"/>
      <point x="237" y="50"/>
      <point x="187" y="-80"/>
      <point x="25" y="-130" type="curve"/>
      <point x="83" y="-11"/>
      <point x="84" y="72"/>
    </contour>
    <contour>
      <point x="285" y="161" type="curve"/>
      <point x="452" y="161" type="line"/>
      <point x="462" y="50"/>
      <point x="412" y="-80"/>
      <point x="250" y="-130" type="curve"/>
      <point x="308" y="-11"/>
      <point x="309" y="72"/>
    </contour>
  </outline>
</glyph>
<glyph name="guilsinglleft" format="2">
  <advance width="432"/>
  <unicode hex="2039"/>
  <outline>
    <contour>
      <point x="255.0" y="303.0" type="curve"/>
      <point x="305" y="376"/>
      <point x="354" y="469"/>
      <point x="392" y="580" type="curve"/>
      <point x="275" y="466"/>
      <point x="153" y="383"/>
      <point x="5" y="303" type="curve"/>
      <point x="153.0" y="223.0"/>
      <point x="275.0" y="140.0"/>
      <point x="392.0" y="26.0" type="curve"/>
      <point x="354.0" y="137.0"/>
      <point x="305.0" y="230.0"/>
    </contour>
  </outline>
</glyph>
<glyph name="guilsinglright" format="2">
  <advance width="432"/>
  <unicode hex="203A"/>
  <outline>
    <contour>
      <point x="177" y="303" type="curve"/>
      <point x="127" y="230"/>
      <point x="78" y="137"/>
      <point x="40" y="26" type="curve"/>
      <point x="157" y="140"/>
      <point x="279" y="223"/>
      <point x="427" y="303" type="curve"/>
      <point x="279" y="383"/>
      <point x="157" y="466"/>
      <point x="40" y="580" type="curve"/>
      <point x="78" y="469"/>
      <point x="127" y="376"/>
    </contour>
  </outline>
</glyph>
<glyph name="Q.alt" format="2">
  <advance width="740"/>
  <outline>
    <contour>
      <point x="370" y="115" type="curve" smooth="yes"/>
      <point x="478" y="115"/>
      <point x="551" y="201"/>
      <point x="551" y="341" type="curve" smooth="yes"/>
      <point x="551" y="480"/>
      <point x="478" y="565"/>
      <point x="370" y="565" type="curve" smooth="yes"/>
      <point x="262" y="565"/>
      <point x="189" y="481"/>
      <point x="189" y="341" type="curve" smooth="yes"/>
      <point x="189" y="201"/>
      <point x="262" y="115"/>
    </contour>
    <contour>
      <point x="370" y="-12" type="curve" smooth="yes"/>
      <point x="177" y="-12"/>
      <point x="37" y="135"/>
      <point x="37" y="341" type="curve" smooth="yes"/>
      <point x="37" y="546"/>
      <point x="177" y="692"/>
      <point x="370" y="692" type="curve" smooth="yes"/>
      <point x="562" y="692"/>
      <point x="703" y="546"/>
      <point x="703" y="341" type="curve" smooth="yes"/>
      <point x="703" y="135"/>
      <point x="562" y="-12"/>
    </contour>
    <contour>
      <point x="495" y="-64" type="line"/>
      <point x="492" y="-25"/>
      <point x="460" y="29"/>
      <point x="312" y="274" type="curve"/>
      <point x="472" y="275" type="line"/>
      <point x="475" y="236"/>
      <point x="507" y="182"/>
      <point x="655" y="-63" type="curve"/>
    </contour>
  </outline>
</glyph>
